<svg xmlns="http://www.w3.org/2000/svg" id="Layer_2" viewBox="0 0 259.15 36.41"><defs><style>.cls-1,.cls-2{fill:#fff;}.cls-2{fill-rule:evenodd;}</style></defs><g id="_&#xB808;&#xC774;&#xC5B4;_17"><path class="cls-1" d="M72.98,27.79V9.18h9.57c1.24,0,2.31.21,3.22.62.9.42,1.59.99,2.06,1.72.47.73.71,1.54.71,2.45,0,1.05-.28,1.89-.85,2.54-.57.65-1.26,1.09-2.07,1.32v.13c.99.2,1.84.66,2.54,1.4.7.74,1.05,1.73,1.05,2.99,0,1.03-.27,1.95-.8,2.78-.53.82-1.31,1.48-2.33,1.95-1.02.48-2.24.72-3.66.72h-9.44ZM82.02,16.49c.78,0,1.37-.17,1.78-.52.41-.35.61-.79.61-1.34s-.2-1-.61-1.34c-.41-.35-1-.52-1.78-.52h-5.05v3.72h5.05ZM82.16,24.2c.64,0,1.18-.09,1.62-.28.44-.19.77-.44.98-.76.21-.32.32-.68.32-1.09s-.11-.77-.32-1.09-.54-.57-.98-.76c-.44-.19-.98-.28-1.62-.28h-5.19v4.26h5.19Z"></path><path class="cls-1" d="M101.31,28.32c-1.92,0-3.65-.44-5.21-1.32-1.56-.88-2.79-2.07-3.68-3.58-.9-1.51-1.34-3.16-1.34-4.95s.45-3.44,1.34-4.95c.9-1.51,2.12-2.7,3.68-3.58,1.56-.88,3.3-1.32,5.21-1.32s3.65.44,5.21,1.32c1.56.88,2.79,2.07,3.68,3.58.9,1.51,1.34,3.16,1.34,4.95s-.45,3.44-1.34,4.95c-.9,1.51-2.12,2.7-3.68,3.58-1.56.88-3.3,1.32-5.21,1.32ZM101.31,24.6c1.13,0,2.16-.26,3.07-.78.91-.52,1.63-1.25,2.14-2.17.51-.92.77-1.98.77-3.17s-.26-2.24-.77-3.17c-.51-.92-1.23-1.64-2.14-2.17-.91-.52-1.94-.78-3.07-.78s-2.16.26-3.07.78c-.91.52-1.63,1.25-2.14,2.17-.51.92-.77,1.98-.77,3.17s.26,2.24.77,3.17c.51.92,1.23,1.64,2.14,2.17.91.52,1.94.78,3.07.78Z"></path><path class="cls-1" d="M114.2,27.79V9.18h5.19l7.31,13.17h.27l-.27-2.26v-10.9h3.99v18.62h-5.19l-7.31-13.17h-.27l.27,2.26v10.9h-3.99Z"></path><path class="cls-1" d="M141.47,28.32c-1.63,0-3.03-.3-4.2-.9-1.17-.6-2.1-1.38-2.78-2.34s-1.15-2-1.4-3.14h4.12c.23.78.71,1.44,1.42,1.98.72.54,1.66.81,2.83.81.82,0,1.48-.09,2-.28.51-.19.89-.43,1.12-.74.23-.31.35-.68.35-1.1s-.18-.82-.53-1.12c-.35-.3-.81-.55-1.37-.74-.56-.19-1.31-.41-2.25-.64-1.45-.39-2.64-.77-3.55-1.13-.91-.36-1.7-.92-2.35-1.66-.66-.74-.98-1.73-.98-2.95,0-1.03.29-1.98.86-2.86.58-.88,1.41-1.57,2.5-2.09,1.09-.51,2.36-.77,3.82-.77,1.54,0,2.86.27,3.95.81,1.09.54,1.94,1.24,2.55,2.1.61.86,1.01,1.79,1.21,2.81h-4.12c-.16-.58-.54-1.09-1.13-1.5-.59-.42-1.41-.62-2.46-.62-.67,0-1.24.09-1.7.27-.46.18-.8.42-1.02.72-.22.3-.33.64-.33,1.01,0,.44.18.82.53,1.12.35.3.81.55,1.37.74.56.2,1.31.41,2.25.64,1.45.39,2.64.77,3.55,1.13.91.36,1.7.92,2.35,1.66.66.74.98,1.73.98,2.95,0,1.06-.29,2.04-.88,2.93-.58.89-1.45,1.6-2.59,2.13-1.14.53-2.51.8-4.11.8Z"></path><path class="cls-1" d="M156.36,27.79v-6.78l-7.05-11.83h4.39l4.47,7.71h.37l4.47-7.71h4.39l-7.05,11.83v6.78h-3.99Z"></path><path class="cls-1" d="M175.77,28.32c-1.63,0-3.03-.3-4.2-.9-1.17-.6-2.1-1.38-2.78-2.34s-1.15-2-1.4-3.14h4.12c.23.78.71,1.44,1.42,1.98.72.54,1.66.81,2.83.81.82,0,1.48-.09,2-.28.51-.19.89-.43,1.12-.74.23-.31.35-.68.35-1.1s-.18-.82-.53-1.12c-.35-.3-.81-.55-1.37-.74-.56-.19-1.31-.41-2.25-.64-1.45-.39-2.64-.77-3.55-1.13-.91-.36-1.7-.92-2.35-1.66-.66-.74-.98-1.73-.98-2.95,0-1.03.29-1.98.86-2.86.58-.88,1.41-1.57,2.5-2.09,1.09-.51,2.36-.77,3.82-.77,1.54,0,2.86.27,3.95.81,1.09.54,1.94,1.24,2.55,2.1.61.86,1.01,1.79,1.21,2.81h-4.12c-.16-.58-.54-1.09-1.13-1.5-.59-.42-1.41-.62-2.46-.62-.67,0-1.24.09-1.7.27-.46.18-.8.42-1.02.72-.22.3-.33.64-.33,1.01,0,.44.18.82.53,1.12.35.3.81.55,1.37.74.56.2,1.31.41,2.25.64,1.45.39,2.64.77,3.55,1.13.91.36,1.7.92,2.35,1.66.66.74.98,1.73.98,2.95,0,1.06-.29,2.04-.88,2.93-.58.89-1.45,1.6-2.59,2.13-1.14.53-2.51.8-4.11.8Z"></path><path class="cls-1" d="M190.54,27.79v-14.89h-5.98v-3.72h15.96v3.72h-5.98v14.89h-3.99Z"></path><path class="cls-1" d="M202.5,27.79V9.18h13.96v3.72h-9.97v3.72h7.98v3.46h-7.98v3.99h9.97v3.72h-13.96Z"></path><path class="cls-1" d="M219.26,27.79V9.18h5.98l4.52,10.64h.66l4.52-10.64h5.98v18.62h-3.99v-11.84l.27-2.39h-.27l-4.26,9.97h-5.19l-4.26-9.97h-.27l.27,2.39v11.84h-3.99Z"></path><path class="cls-1" d="M251.57,28.32c-1.63,0-3.03-.3-4.2-.9-1.17-.6-2.1-1.38-2.78-2.34s-1.15-2-1.4-3.14h4.12c.23.78.71,1.44,1.42,1.98.72.54,1.66.81,2.83.81.82,0,1.48-.09,2-.28.51-.19.89-.43,1.12-.74.23-.31.35-.68.35-1.1s-.18-.82-.53-1.12c-.35-.3-.81-.55-1.37-.74-.56-.19-1.31-.41-2.25-.64-1.45-.39-2.64-.77-3.55-1.13-.91-.36-1.7-.92-2.35-1.66-.66-.74-.98-1.73-.98-2.95,0-1.03.29-1.98.86-2.86.58-.88,1.41-1.57,2.5-2.09,1.09-.51,2.36-.77,3.82-.77,1.54,0,2.86.27,3.95.81,1.09.54,1.94,1.24,2.55,2.1.61.86,1.01,1.79,1.21,2.81h-4.12c-.16-.58-.54-1.09-1.13-1.5-.59-.42-1.41-.62-2.46-.62-.67,0-1.24.09-1.7.27-.46.18-.8.42-1.02.72-.22.3-.33.64-.33,1.01,0,.44.18.82.53,1.12.35.3.81.55,1.37.74.56.2,1.31.41,2.25.64,1.45.39,2.64.77,3.55,1.13.91.36,1.7.92,2.35,1.66.66.74.98,1.73.98,2.95,0,1.06-.29,2.04-.88,2.93-.58.89-1.45,1.6-2.59,2.13-1.14.53-2.51.8-4.11.8Z"></path><path class="cls-2" d="M36.48,17.62l3.97,6.82h7.67l3.45-5.97-3.96-6.86h-8c-.73,0-1.35-.44-1.61-1.07l-4.06-7.99c-.43-.86-.09-1.91.77-2.34.25-.13.52-.19.79-.19h0S53.85,0,53.85,0C54.54,0,55.13.4,55.42.98l4.63,8.02c.33.57.3,1.24-.01,1.77l-4.44,7.69,4.34,7.52c.31.53.34,1.2.01,1.77l-4.43,7.67c-.28.58-.88.98-1.57.98h-18.97c-.6,0-1.19-.32-1.51-.87l-4.68-8.04M36.48,17.62L26.81.87c-.32-.56-.91-.87-1.51-.87h0s-18.97,0-18.97,0c-.69,0-1.29.4-1.57.98L.34,8.65c-.33.57-.3,1.24.01,1.77l4.34,7.52L.25,25.63c-.31.53-.34,1.2-.01,1.77l4.63,8.02c.28.58.88.98,1.57.98h18.36c.26,0,.53-.06.79-.19.86-.43,1.21-1.48.77-2.34l-4.06-7.99c-.26-.63-.89-1.07-1.61-1.07h-8l-3.96-6.86,3.45-5.97h7.67l8.96,15.52"></path></g></svg>